<?xml version="1.0" encoding="utf-8"?><svg xmlns="http://www.w3.org/2000/svg" xmlns:xlink="http://www.w3.org/1999/xlink"><symbol viewBox="0 0 20 15" id="behance-logo" xmlns="http://www.w3.org/2000/svg"><path fill-rule="evenodd" clip-rule="evenodd" d="M8.072 6.84s1.89-.147 1.89-2.499c0-2.345-1.545-3.496-3.508-3.496H0V13.98h6.454s3.942.128 3.942-3.88c0 0 .17-3.259-2.324-3.259zm2.814 2.39c0-.025.006-5.042 4.763-5.042 5.023 0 4.317 5.7 4.317 5.7h-6.424c0 2.436 2.18 2.283 2.18 2.283 2.064 0 1.992-1.413 1.992-1.413h2.18c0 3.752-4.245 3.496-4.245 3.496-5.09 0-4.763-5.023-4.763-5.023zm4.812-3.119c-1.915 0-2.18 2.02-2.18 2.02h4.07s.03-2.02-1.89-2.02zM6.454 3.178h-3.61V6.11H6.23c.585 0 1.099-.198 1.099-1.565 0-1.368-.876-1.368-.876-1.368zm-.18 8.468h-3.43V8.131h3.61s1.31-.013 1.304 1.809c0 1.534-.972 1.694-1.485 1.707zm6.706-8.41V1.619h5.12v1.617h-5.12z"/></symbol><symbol viewBox="0 0 20 21" id="dribble-logo" xmlns="http://www.w3.org/2000/svg"><path fill-rule="evenodd" clip-rule="evenodd" d="M10 .444C4.486.444 0 4.976 0 10.546s4.486 10.1 10 10.1 10-4.53 10-10.1C20 4.976 15.514.444 10 .444zm6.58 4.768a8.54 8.54 0 011.866 5.203 20.643 20.643 0 00-3.908-.382c-.62 0-1.272.032-1.926.113-.055-.135-.11-.27-.169-.407-.17-.404-.352-.804-.541-1.198 2.956-1.232 4.382-2.942 4.678-3.33zm-1.014-1.067a8.365 8.365 0 00-7.47-1.9c.343.47 1.787 2.49 3.107 4.929 2.85-1.09 4.128-2.704 4.363-3.029zM6.371 2.854A55.26 55.26 0 019.462 7.72c-3.632.966-6.858 1.028-7.636 1.028h-.083a8.55 8.55 0 014.628-5.895zm-4.816 7.494a8.546 8.546 0 002.124 5.865c.357-.597 2.678-4.248 6.9-5.628.093-.03.187-.058.281-.085a28.767 28.767 0 00-.646-1.364c-3.75 1.125-7.39 1.213-8.438 1.213h-.221zM10 19.092a8.353 8.353 0 01-5.153-1.777c.241-.479 1.993-3.669 6.62-5.297a.056.056 0 01.01-.003c1.16 3.055 1.652 5.619 1.786 6.414a8.319 8.319 0 01-3.263.663zm3.166-7.496c1.05 2.93 1.506 5.334 1.619 5.991a8.559 8.559 0 003.549-5.63c-.321-.1-1.702-.49-3.468-.49-.538 0-1.111.036-1.7.129z"/></symbol><symbol viewBox="0 0 11 20" id="facebook-logo" xmlns="http://www.w3.org/2000/svg"><path d="M10.586.004L7.947 0c-2.964 0-4.88 1.932-4.88 4.922v2.27H.416A.411.411 0 000 7.598v3.288c0 .226.186.408.415.408h2.653v8.297c0 .226.185.408.415.408h3.46c.23 0 .416-.183.416-.408v-8.297h3.101c.23 0 .415-.182.415-.408l.001-3.288a.405.405 0 00-.121-.288.419.419 0 00-.294-.12H7.36V5.268c0-.925.224-1.394 1.449-1.394l1.777-.001c.23 0 .415-.183.415-.408V.412a.411.411 0 00-.414-.408z"/></symbol><symbol viewBox="0 0 22 15" id="google-logo" xmlns="http://www.w3.org/2000/svg"><path d="M.004 7.32C-.126 3.844 2.87.633 6.294.59c1.745-.151 3.443.537 4.764 1.66a30.352 30.352 0 01-1.682 1.764c-1.163-.718-2.563-1.265-3.921-.78-2.192.635-3.52 3.264-2.708 5.443.672 2.275 3.395 3.523 5.53 2.567 1.105-.402 1.834-1.438 2.153-2.551-1.266-.026-2.533-.01-3.8-.045-.003-.766-.006-1.529-.003-2.295 2.112-.003 4.228-.01 6.343.01.13 1.876-.142 3.884-1.343 5.39-1.643 2.15-4.68 2.78-7.151 1.937C1.854 12.816-.053 10.132.004 7.32zM18.01 3.682h1.983l.014 2.067c.663.007 1.33.01 1.993.013v2.06l-1.993.011c-.007.692-.01 1.38-.014 2.07-.663-.003-1.327 0-1.986 0-.007-.69-.007-1.378-.014-2.066-.663-.008-1.33-.01-1.993-.015v-2.06c.663-.003 1.327-.007 1.993-.014.004-.687.01-1.378.017-2.066z"/></symbol><symbol viewBox="0 0 20 21" id="instagram-logo" xmlns="http://www.w3.org/2000/svg"><path fill-rule="evenodd" clip-rule="evenodd" d="M6.25.151h7.5C17.201.151 20 2.98 20 6.465v7.575c0 3.486-2.799 6.314-6.25 6.314h-7.5C2.799 20.354 0 17.526 0 14.04V6.465C0 2.979 2.799.15 6.25.15zm7.5 18.309c2.413 0 4.375-1.983 4.375-4.42V6.465c0-2.437-1.962-4.42-4.375-4.42h-7.5c-2.413 0-4.375 1.983-4.375 4.42v7.575c0 2.437 1.962 4.42 4.375 4.42h7.5z"/><path fill-rule="evenodd" clip-rule="evenodd" d="M5 10.252c0-2.789 2.239-5.05 5-5.05s5 2.261 5 5.05c0 2.79-2.239 5.051-5 5.051s-5-2.261-5-5.05zm1.875 0c0 1.74 1.402 3.157 3.125 3.157s3.125-1.417 3.125-3.157S11.723 7.096 10 7.096s-3.125 1.415-3.125 3.156z"/><path d="M15 5.202c.552 0 1-.452 1-1.01s-.448-1.01-1-1.01-1 .452-1 1.01.448 1.01 1 1.01z"/></symbol><symbol viewBox="0 0 6 10" id="lr-arrow" xmlns="http://www.w3.org/2000/svg"><path opacity=".4" d="M1 1l4 4-4 4"/></symbol><symbol viewBox="0 0 15 21" id="pinterest-logo" xmlns="http://www.w3.org/2000/svg"><path d="M13.055 2.818C11.74 1.483 9.923.748 7.935.748 4.9.747 3.034 2.064 2.002 3.17.729 4.532 0 6.34 0 8.13c0 2.25.889 3.976 2.377 4.618.1.043.2.065.299.065.314 0 .562-.218.648-.566.05-.2.167-.694.218-.908.108-.424.02-.627-.216-.922-.43-.539-.63-1.176-.63-2.006 0-2.464 1.733-5.083 4.945-5.083 2.55 0 4.133 1.534 4.133 4.002 0 1.558-.317 3-.893 4.063-.4.738-1.103 1.617-2.184 1.617-.467 0-.886-.203-1.15-.557-.251-.334-.333-.767-.233-1.217.114-.51.269-1.04.419-1.554.273-.938.532-1.824.532-2.53 0-1.209-.702-2.021-1.747-2.021-1.328 0-2.368 1.427-2.368 3.25 0 .893.225 1.562.326 1.818-.167.75-1.16 5.21-1.35 6.05-.108.492-.765 4.369.322 4.678 1.221.347 2.313-3.429 2.424-3.856.09-.347.405-1.659.598-2.466.59.602 1.539 1.008 2.463 1.008 1.741 0 3.307-.83 4.41-2.335C14.41 11.817 15 9.78 15 7.545c0-1.748-.71-3.47-1.945-4.727z"/></symbol><symbol viewBox="0 0 6 10" id="rl-arrow" xmlns="http://www.w3.org/2000/svg"><path opacity=".4" d="M5 1L1 5l4 4"/></symbol><symbol viewBox="0 0 20 18" id="twitter-logo" xmlns="http://www.w3.org/2000/svg"><path d="M20 2.62a7.983 7.983 0 01-2.357.667A4.229 4.229 0 0019.448.942a8.058 8.058 0 01-2.606 1.029A4.04 4.04 0 0013.846.633c-2.265 0-4.103 1.898-4.103 4.238 0 .333.036.656.107.966-3.41-.176-6.434-1.864-8.458-4.429A4.327 4.327 0 00.836 3.54c0 1.47.725 2.768 1.826 3.528a3.976 3.976 0 01-1.859-.53v.053c0 2.054 1.415 3.767 3.292 4.156a3.969 3.969 0 01-1.853.074c.522 1.683 2.037 2.909 3.833 2.943A8.067 8.067 0 010 15.518a11.339 11.339 0 006.29 1.905c7.547 0 11.674-6.459 11.674-12.06 0-.184-.004-.367-.012-.549A8.478 8.478 0 0020 2.62z"/></symbol><symbol viewBox="0 0 20 19" id="vimeo-logo" xmlns="http://www.w3.org/2000/svg"><path d="M0 5.72c1.76-1.425 4.262-4.553 6.214-4.553 1.949 0 2.428 2.335 2.694 4.452.27 2.118 1.035 6.75 2.066 6.75 1.032 0 3.384-4.098 3.25-5.681-.132-1.583-1.835-1.346-2.772-.891.861-3.166 2.85-4.85 5.392-4.85C19.387.947 20 2.77 20 5.006c0 3.405-6.806 13.836-10.917 13.836-2.543 0-3.174-3.8-3.69-5.682-.516-1.879-1.53-6.81-2.715-7.126-.46-.077-1.76.969-1.76.969L0 5.719z"/></symbol><symbol viewBox="0 0 16 20" id="youtube-logo" xmlns="http://www.w3.org/2000/svg"><path fill-rule="evenodd" clip-rule="evenodd" d="M5.049 7.665h-1.17l-.002-4.04L2.407.15h1.265l.746 2.58.735-2.573h1.28L5.05 3.622l-.001 4.043zm1.417-4.697c-.084.285-.126.68-.126 1.186V5.55c0 .462.022.808.07 1.04.045.23.122.428.232.59.108.162.26.285.457.366.196.082.434.12.717.12.253 0 .477-.046.673-.141.194-.094.354-.241.477-.438a1.7 1.7 0 00.244-.64c.038-.23.058-.589.058-1.078V4.036c0-.386-.02-.674-.062-.863a1.7 1.7 0 00-.23-.55 1.23 1.23 0 00-.475-.432 1.543 1.543 0 00-.739-.167c-.34 0-.621.087-.84.26-.22.172-.372.4-.456.684zm3.632 4.163c.057.14.146.253.267.338a.778.778 0 00.456.127c.16 0 .302-.044.425-.133.124-.09.228-.222.313-.4l-.021.437h1.24V2.228h-.976v4.103a.407.407 0 01-.814 0V2.228H9.969v3.556c0 .453.008.755.022.908.015.152.05.298.107.44zM16 16.875v-5.66c0-1.358-1.178-2.47-2.618-2.47H2.618C1.178 8.745 0 9.857 0 11.215v5.66c0 1.357 1.177 2.468 2.618 2.468h10.764c1.44 0 2.618-1.11 2.618-2.468zm-6.419-3.996c-.266 0-.485.18-.485.4v2.975c0 .22.219.398.485.398.269 0 .488-.178.488-.398v-2.976c0-.22-.22-.4-.488-.4zm3.953 1.31H12.48l.005-.611c0-.272.223-.494.497-.494h.067c.274 0 .498.222.498.494l-.013.612zm-10.198 3.3v-5.962h1.333v-.883l-3.556-.006v.869l1.11.003v5.98h1.113zm2.887-5.074h1.112v5.073l-.893-.002.002-.657c-.24.515-1.2.93-1.7.569-.235-.169-.257-.449-.277-.71a6.415 6.415 0 00-.008-.11 7.343 7.343 0 01-.006-.552l.002-.456-.004-3.155h1.106l.005 3.206c0 .166-.003.306-.006.42-.004.187-.007.305.01.357.158.482.565.22.656-.027.017-.049.014-.152.009-.327a14.128 14.128 0 01-.008-.445v-3.184zm4.672 3.646l-.002-2.65c-.001-1.01-.757-1.615-1.784-.798l.005-1.97-1.111.002-.006 6.8.914-.014.083-.424c1.168 1.073 1.903.338 1.9-.946zm2.647-.347l.835-.004c.38 2.26-2.811 2.63-2.812.004v-1.58c0-.474.047-.847.142-1.12.094-.274.255-.477.467-.629.674-.486 2.008-.335 2.144.615.044.3.057.825.057 1.35v.719h-1.91V16.293c0 .249.206.451.456.451h.164c.25 0 .455-.202.455-.451v-.466l.001-.051.001-.062zM7.311 6.248c0 .298.222.542.493.542.27 0 .492-.243.492-.542V3.442c0-.299-.221-.542-.492-.542-.27 0-.493.243-.493.542v2.806z"/></symbol></svg>